<svg xmlns="http://www.w3.org/2000/svg" xmlns:xlink="http://www.w3.org/1999/xlink" xmlns:lucid="lucid" width="1303" height="798.13"><g transform="translate(-397.50002287645225 156)" lucid:page-tab-id="0_0"><path d="M0-500h2000v1500H0z" fill="#fff"/><path d="M440 5a5 5 0 0 1 5-5h270a5 5 0 0 1 5 5v222a5 5 0 0 1-5 5H445a5 5 0 0 1-5-5z" fill="#fff"/><path d="M440 40V5a5 5 0 0 1 5-5h270a5 5 0 0 1 5 5v35" fill="#fc9432"/><path d="M440 5a5 5 0 0 1 5-5h270a5 5 0 0 1 5 5v222a5 5 0 0 1-5 5H445a5 5 0 0 1-5-5zM440 40h280M580 40v192" stroke="#282c33" fill="none"/><use xlink:href="#a" transform="matrix(1,0,0,1,450,0) translate(52.06018518518522 24.933333333333334)"/><use xlink:href="#b" transform="matrix(1,0,0,1,445,42.5) translate(0 17.1)"/><use xlink:href="#c" transform="matrix(1,0,0,1,585,42.5) translate(0 17.1)"/><use xlink:href="#d" transform="matrix(1,0,0,1,445,74.5) translate(0 17.1)"/><use xlink:href="#e" transform="matrix(1,0,0,1,445,106.5) translate(0 17.1)"/><use xlink:href="#f" transform="matrix(1,0,0,1,445,138.5) translate(0 17.1)"/><use xlink:href="#g" transform="matrix(1,0,0,1,445,170.5) translate(0 17.1)"/><use xlink:href="#h" transform="matrix(1,0,0,1,445,202.5) translate(0 17.1)"/><path d="M1400 5a5 5 0 0 1 5-5h270a5 5 0 0 1 5 5v254a5 5 0 0 1-5 5h-270a5 5 0 0 1-5-5z" fill="#fff"/><path d="M1400 40V5a5 5 0 0 1 5-5h270a5 5 0 0 1 5 5v35" fill="#fc9432"/><path d="M1400 5a5 5 0 0 1 5-5h270a5 5 0 0 1 5 5v254a5 5 0 0 1-5 5h-270a5 5 0 0 1-5-5zM1400 40h280M1615 40v224" stroke="#282c33" fill="none"/><use xlink:href="#i" transform="matrix(1,0,0,1,1410,0) translate(35.68425925925928 24.933333333333334)"/><use xlink:href="#j" transform="matrix(1,0,0,1,1405,42.5) translate(0 17.1)"/><use xlink:href="#k" transform="matrix(1,0,0,1,1619.9857056837554,42.5) translate(0 17.1)"/><use xlink:href="#l" transform="matrix(1,0,0,1,1405,74.5) translate(0 17.1)"/><use xlink:href="#m" transform="matrix(1,0,0,1,1619.9857056837554,74.5) translate(0 17.1)"/><use xlink:href="#n" transform="matrix(1,0,0,1,1405,106.5) translate(0 17.1)"/><use xlink:href="#o" transform="matrix(1,0,0,1,1405,138.5) translate(0 17.1)"/><use xlink:href="#p" transform="matrix(1,0,0,1,1405,170.5) translate(0 17.1)"/><use xlink:href="#q" transform="matrix(1,0,0,1,1405,202.5) translate(0 17.1)"/><use xlink:href="#r" transform="matrix(1,0,0,1,1405,234.5) translate(0 17.1)"/><path d="M870 5a5 5 0 0 1 5-5h370a5 5 0 0 1 5 5v606a5 5 0 0 1-5 5H875a5 5 0 0 1-5-5z" fill="#fff"/><path d="M870 40V5a5 5 0 0 1 5-5h370a5 5 0 0 1 5 5v35" fill="#fc9432"/><path d="M870 5a5 5 0 0 1 5-5h370a5 5 0 0 1 5 5v606a5 5 0 0 1-5 5H875a5 5 0 0 1-5-5zM870 40h380M1121.75 40v576" stroke="#282c33" fill="none"/><use xlink:href="#s" transform="matrix(1,0,0,1,880,0) translate(145.84351851851852 24.933333333333334)"/><use xlink:href="#t" transform="matrix(1,0,0,1,875,42.5) translate(0 17.1)"/><use xlink:href="#c" transform="matrix(1,0,0,1,1126.7472547736409,42.5) translate(0 17.1)"/><use xlink:href="#u" transform="matrix(1,0,0,1,875,74.5) translate(0 17.1)"/><use xlink:href="#m" transform="matrix(1,0,0,1,1126.7472547736409,74.5) translate(0 17.1)"/><use xlink:href="#v" transform="matrix(1,0,0,1,875,106.5) translate(0 17.1)"/><use xlink:href="#m" transform="matrix(1,0,0,1,1126.7472547736409,106.5) translate(0 17.1)"/><use xlink:href="#w" transform="matrix(1,0,0,1,875,138.5) translate(0 17.1)"/><use xlink:href="#x" transform="matrix(1,0,0,1,875,170.5) translate(0 17.1)"/><use xlink:href="#y" transform="matrix(1,0,0,1,875,202.5) translate(0 17.1)"/><use xlink:href="#z" transform="matrix(1,0,0,1,875,234.5) translate(0 17.1)"/><use xlink:href="#A" transform="matrix(1,0,0,1,875,266.5) translate(0 17.1)"/><use xlink:href="#B" transform="matrix(1,0,0,1,875,298.5) translate(0 17.1)"/><use xlink:href="#B" transform="matrix(1,0,0,1,875,330.5) translate(0 17.1)"/><use xlink:href="#C" transform="matrix(1,0,0,1,875,362.5) translate(0 17.1)"/><use xlink:href="#D" transform="matrix(1,0,0,1,875,394.5) translate(0 17.1)"/><use xlink:href="#E" transform="matrix(1,0,0,1,875,426.5) translate(0 17.1)"/><use xlink:href="#F" transform="matrix(1,0,0,1,875,458.5) translate(0 17.1)"/><use xlink:href="#G" transform="matrix(1,0,0,1,875,490.5) translate(0 17.1)"/><use xlink:href="#H" transform="matrix(1,0,0,1,875,522.5) translate(0 17.1)"/><use xlink:href="#I" transform="matrix(1,0,0,1,875,554.5) translate(0 17.1)"/><use xlink:href="#J" transform="matrix(1,0,0,1,875,586.5) translate(0 17.1)"/><path d="M1400 325a5 5 0 0 1 5-5h270a5 5 0 0 1 5 5v126a5 5 0 0 1-5 5h-270a5 5 0 0 1-5-5z" fill="#fff"/><path d="M1400 360v-35a5 5 0 0 1 5-5h270a5 5 0 0 1 5 5v35" fill="#fc9432"/><path d="M1400 325a5 5 0 0 1 5-5h270a5 5 0 0 1 5 5v126a5 5 0 0 1-5 5h-270a5 5 0 0 1-5-5zM1400 360h280M1538.28 360v96" stroke="#282c33" fill="none"/><use xlink:href="#K" transform="matrix(1,0,0,1,1410,320) translate(37.02037037037039 24.933333333333334)"/><use xlink:href="#L" transform="matrix(1,0,0,1,1405,362.5) translate(0 17.1)"/><use xlink:href="#c" transform="matrix(1,0,0,1,1543.2798345758615,362.5) translate(0 17.1)"/><use xlink:href="#M" transform="matrix(1,0,0,1,1405,394.5) translate(0 17.1)"/><use xlink:href="#m" transform="matrix(1,0,0,1,1543.2798345758615,394.5) translate(0 17.1)"/><use xlink:href="#N" transform="matrix(1,0,0,1,1405,426.5) translate(0 17.1)"/><path d="M1400 517a5 5 0 0 1 5-5h270a5 5 0 0 1 5 5v94a5 5 0 0 1-5 5h-270a5 5 0 0 1-5-5z" fill="#fff"/><path d="M1400 552v-35a5 5 0 0 1 5-5h270a5 5 0 0 1 5 5v35" fill="#fc9432"/><path d="M1400 517a5 5 0 0 1 5-5h270a5 5 0 0 1 5 5v94a5 5 0 0 1-5 5h-270a5 5 0 0 1-5-5zM1400 552h280M1538.28 552v64" stroke="#282c33" fill="none"/><use xlink:href="#O" transform="matrix(1,0,0,1,1410,512) translate(36.95185185185187 24.933333333333334)"/><use xlink:href="#L" transform="matrix(1,0,0,1,1405,554.5) translate(0 17.1)"/><use xlink:href="#c" transform="matrix(1,0,0,1,1543.2798345758615,554.5) translate(0 17.1)"/><use xlink:href="#M" transform="matrix(1,0,0,1,1405,586.5) translate(0 17.1)"/><use xlink:href="#m" transform="matrix(1,0,0,1,1543.2798345758615,586.5) translate(0 17.1)"/><path d="M440 385a5 5 0 0 1 5-5h270a5 5 0 0 1 5 5v126a5 5 0 0 1-5 5H445a5 5 0 0 1-5-5z" fill="#fff"/><path d="M440 420v-35a5 5 0 0 1 5-5h270a5 5 0 0 1 5 5v35" fill="#fc9432"/><path d="M440 385a5 5 0 0 1 5-5h270a5 5 0 0 1 5 5v126a5 5 0 0 1-5 5H445a5 5 0 0 1-5-5zM440 420h280M578.28 420v96" stroke="#282c33" fill="none"/><use xlink:href="#P" transform="matrix(1,0,0,1,450,380) translate(44.5916666666667 24.933333333333334)"/><use xlink:href="#Q" transform="matrix(1,0,0,1,450,380) translate(78.7138888888889 24.933333333333334)"/><use xlink:href="#u" transform="matrix(1,0,0,1,445,422.5) translate(0 17.1)"/><use xlink:href="#m" transform="matrix(1,0,0,1,583.2798345758615,422.5) translate(0 17.1)"/><use xlink:href="#R" transform="matrix(1,0,0,1,445,454.5) translate(0 17.1)"/><use xlink:href="#S" transform="matrix(1,0,0,1,445,486.5) translate(0 17.1)"/><path d="M660-128a8 8 0 0 1 8-8h756.95a8 8 0 0 1 8 8v64a8 8 0 0 1-8 8H668a8 8 0 0 1-8-8z" fill="none"/><use xlink:href="#T" transform="matrix(1,0,0,1,660,-136) translate(172.92037037037073 52.93333333333331)"/><use xlink:href="#U" transform="matrix(1,0,0,1,660,-136) translate(384.8833333333333 52.93333333333331)"/><use xlink:href="#V" transform="matrix(1,0,0,1,660,-136) translate(492.4814814814813 52.93333333333331)"/><path d="M1270.5 119.5h42.5a12 12 0 0 0 12-12V100a12 12 0 0 1 12-12h43.1" stroke="#3a414a" fill="none"/><path d="M1270.5 129.5v-20M1250.5 119.5h20" stroke="#3a414a" fill="#fff"/><path d="M1399.28 98l-20-10 20-10" stroke="#3a414a" fill="#fff" fill-opacity="0"/><path d="M1399.28 88h-20" stroke="#3a414a" fill="#fff"/><path d="M1270.5 55.34h67.5a12 12 0 0 1 12 12v520.8a12 12 0 0 0 12 12h18.1" stroke="#3a414a" fill="none"/><path d="M1270.5 65.34v-20M1250.5 55.34h20" stroke="#3a414a" fill="#fff"/><path d="M1399.28 610.13l-20-10 20-10" stroke="#3a414a" fill="#fff" fill-opacity="0"/><path d="M1399.28 600.13h-20" stroke="#3a414a" fill="#fff"/><path d="M1379.5 408.07H1292a12 12 0 0 1-12-12V65.43a10.1 10.1 0 0 0-10.1-10.1" stroke="#3a414a" fill="none"/><path d="M1379.5 398.07v20M1399.5 408.07h-20" stroke="#3a414a" fill="#fff"/><path d="M1250.72 45.34l20 10-20 10" stroke="#3a414a" fill="#fff" fill-opacity="0"/><path d="M1250.72 55.34h20" stroke="#3a414a" fill="#fff"/><path d="M740.5 55.8H783a12 12 0 0 1 12 12v39.7a12 12 0 0 0 12 12h43.1" stroke="#3a414a" fill="none"/><path d="M740.5 65.8v-20M720.5 55.8h20" stroke="#3a414a" fill="#fff"/><path d="M869.28 129.5l-20-10 20-10" stroke="#3a414a" fill="#fff" fill-opacity="0"/><path d="M869.28 119.5h-20" stroke="#3a414a" fill="#fff"/><path d="M419.5 435.96h-8a12 12 0 0 1-12-12V67.8a12 12 0 0 1 12-12h8.6" stroke="#3a414a" fill="none"/><path d="M419.5 425.96v20M439.5 435.96h-20" stroke="#3a414a" fill="#fff"/><path d="M439.28 65.8l-20-10 20-10" stroke="#3a414a" fill="#fff" fill-opacity="0"/><path d="M439.28 55.8h-20" stroke="#3a414a" fill="#fff"/><path d="M740.5 435.96h7.5a12 12 0 0 0 12-12V99.42a12 12 0 0 1 12-12h78.1" stroke="#3a414a" fill="none"/><path d="M740.5 445.96v-20M720.5 435.96h20" stroke="#3a414a" fill="#fff"/><path d="M869.28 97.42l-20-10 20-10" stroke="#3a414a" fill="#fff" fill-opacity="0"/><path d="M869.28 87.42h-20" stroke="#3a414a" fill="#fff"/><defs><path fill="#fff" d="M84 4C-5 8 30-112 23-190h32v120c0 31 7 50 39 49 72-2 45-101 50-169h31l1 190h-30c-1-10 1-25-2-33-11 22-28 36-60 37" id="W"/><path fill="#fff" d="M135-143c-3-34-86-38-87 0 15 53 115 12 119 90S17 21 10-45l28-5c4 36 97 45 98 0-10-56-113-15-118-90-4-57 82-63 122-42 12 7 21 19 24 35" id="X"/><path fill="#fff" d="M100-194c63 0 86 42 84 106H49c0 40 14 67 53 68 26 1 43-12 49-29l28 8c-11 28-37 45-77 45C44 4 14-33 15-96c1-61 26-98 85-98zm52 81c6-60-76-77-97-28-3 7-6 17-6 28h103" id="Y"/><path fill="#fff" d="M114-163C36-179 61-72 57 0H25l-1-190h30c1 12-1 29 2 39 6-27 23-49 58-41v29" id="Z"/><path fill="#fff" d="M212-179c-10-28-35-45-73-45-59 0-87 40-87 99 0 60 29 101 89 101 43 0 62-24 78-52l27 14C228-24 195 4 139 4 59 4 22-46 18-125c-6-104 99-153 187-111 19 9 31 26 39 46" id="aa"/><path fill="#fff" d="M100-194c62-1 85 37 85 99 1 63-27 99-86 99S16-35 15-95c0-66 28-99 85-99zM99-20c44 1 53-31 53-75 0-43-8-75-51-75s-53 32-53 75 10 74 51 75" id="ab"/><path fill="#fff" d="M24 0v-261h32V0H24" id="ac"/><path fill="#fff" d="M96-169c-40 0-48 33-48 73s9 75 48 75c24 0 41-14 43-38l32 2c-6 37-31 61-74 61-59 0-76-41-82-99-10-93 101-131 147-64 4 7 5 14 7 22l-32 3c-4-21-16-35-41-35" id="ad"/><path fill="#fff" d="M59-47c-2 24 18 29 38 22v24C64 9 27 4 27-40v-127H5v-23h24l9-43h21v43h35v23H59v120" id="ae"/><path fill="#fff" d="M24-231v-30h32v30H24zM24 0v-190h32V0H24" id="af"/><path fill="#fff" d="M117-194c89-4 53 116 60 194h-32v-121c0-31-8-49-39-48C34-167 62-67 57 0H25l-1-190h30c1 10-1 24 2 32 11-22 29-35 61-36" id="ag"/><g id="a"><use transform="matrix(0.0685185185185185,0,0,0.0685185185185185,0,0)" xlink:href="#W"/><use transform="matrix(0.0685185185185185,0,0,0.0685185185185185,13.7037037037037,0)" xlink:href="#X"/><use transform="matrix(0.0685185185185185,0,0,0.0685185185185185,26.03703703703703,0)" xlink:href="#Y"/><use transform="matrix(0.0685185185185185,0,0,0.0685185185185185,39.74074074074073,0)" xlink:href="#Z"/><use transform="matrix(0.0685185185185185,0,0,0.0685185185185185,47.89444444444443,0)" xlink:href="#aa"/><use transform="matrix(0.0685185185185185,0,0,0.0685185185185185,65.64074074074072,0)" xlink:href="#ab"/><use transform="matrix(0.0685185185185185,0,0,0.0685185185185185,79.34444444444442,0)" xlink:href="#ac"/><use transform="matrix(0.0685185185185185,0,0,0.0685185185185185,84.7574074074074,0)" xlink:href="#ac"/><use transform="matrix(0.0685185185185185,0,0,0.0685185185185185,90.17037037037035,0)" xlink:href="#Y"/><use transform="matrix(0.0685185185185185,0,0,0.0685185185185185,103.87407407407404,0)" xlink:href="#ad"/><use transform="matrix(0.0685185185185185,0,0,0.0685185185185185,116.20740740740737,0)" xlink:href="#ae"/><use transform="matrix(0.0685185185185185,0,0,0.0685185185185185,123.05925925925922,0)" xlink:href="#af"/><use transform="matrix(0.0685185185185185,0,0,0.0685185185185185,128.47222222222217,0)" xlink:href="#ab"/><use transform="matrix(0.0685185185185185,0,0,0.0685185185185185,142.17592592592587,0)" xlink:href="#ag"/></g><path fill="#333" d="M84 4C-5 8 30-112 23-190h32v120c0 31 7 50 39 49 72-2 45-101 50-169h31l1 190h-30c-1-10 1-25-2-33-11 22-28 36-60 37" id="ah"/><path fill="#333" d="M135-143c-3-34-86-38-87 0 15 53 115 12 119 90S17 21 10-45l28-5c4 36 97 45 98 0-10-56-113-15-118-90-4-57 82-63 122-42 12 7 21 19 24 35" id="ai"/><path fill="#333" d="M100-194c63 0 86 42 84 106H49c0 40 14 67 53 68 26 1 43-12 49-29l28 8c-11 28-37 45-77 45C44 4 14-33 15-96c1-61 26-98 85-98zm52 81c6-60-76-77-97-28-3 7-6 17-6 28h103" id="aj"/><path fill="#333" d="M114-163C36-179 61-72 57 0H25l-1-190h30c1 12-1 29 2 39 6-27 23-49 58-41v29" id="ak"/><path fill="#333" d="M33 0v-248h34V0H33" id="al"/><path fill="#333" d="M85-194c31 0 48 13 60 33l-1-100h32l1 261h-30c-2-10 0-23-3-31C134-8 116 4 85 4 32 4 16-35 15-94c0-66 23-100 70-100zm9 24c-40 0-46 34-46 75 0 40 6 74 45 74 42 0 51-32 51-76 0-42-9-74-50-73" id="am"/><g id="b"><use transform="matrix(0.05,0,0,0.05,0,0)" xlink:href="#ah"/><use transform="matrix(0.05,0,0,0.05,10,0)" xlink:href="#ai"/><use transform="matrix(0.05,0,0,0.05,19,0)" xlink:href="#aj"/><use transform="matrix(0.05,0,0,0.05,29,0)" xlink:href="#ak"/><use transform="matrix(0.05,0,0,0.05,34.95,0)" xlink:href="#al"/><use transform="matrix(0.05,0,0,0.05,39.95,0)" xlink:href="#am"/></g><path fill="#333" d="M115-194c55 1 70 41 70 98S169 2 115 4C84 4 66-9 55-30l1 105H24l-1-265h31l2 30c10-21 28-34 59-34zm-8 174c40 0 45-34 45-75s-6-73-45-74c-42 0-51 32-51 76 0 43 10 73 51 73" id="an"/><path fill="#333" d="M143 0L79-87 56-68V0H24v-261h32v163l83-92h37l-77 82L181 0h-38" id="ao"/><g id="c"><use transform="matrix(0.05,0,0,0.05,0,0)" xlink:href="#an"/><use transform="matrix(0.05,0,0,0.05,10,0)" xlink:href="#ao"/></g><path fill="#333" d="M190 0L58-211 59 0H30v-248h39L202-35l-2-213h31V0h-41" id="ap"/><path fill="#333" d="M141-36C126-15 110 5 73 4 37 3 15-17 15-53c-1-64 63-63 125-63 3-35-9-54-41-54-24 1-41 7-42 31l-33-3c5-37 33-52 76-52 45 0 72 20 72 64v82c-1 20 7 32 28 27v20c-31 9-61-2-59-35zM48-53c0 20 12 33 32 33 41-3 63-29 60-74-43 2-92-5-92 41" id="aq"/><path fill="#333" d="M210-169c-67 3-38 105-44 169h-31v-121c0-29-5-50-35-48C34-165 62-65 56 0H25l-1-190h30c1 10-1 24 2 32 10-44 99-50 107 0 11-21 27-35 58-36 85-2 47 119 55 194h-31v-121c0-29-5-49-35-48" id="ar"/><g id="d"><use transform="matrix(0.05,0,0,0.05,0,0)" xlink:href="#ap"/><use transform="matrix(0.05,0,0,0.05,12.950000000000001,0)" xlink:href="#aq"/><use transform="matrix(0.05,0,0,0.05,22.950000000000003,0)" xlink:href="#ar"/><use transform="matrix(0.05,0,0,0.05,37.900000000000006,0)" xlink:href="#aj"/></g><path fill="#333" d="M24-231v-30h32v30H24zM24 0v-190h32V0H24" id="as"/><path fill="#333" d="M24 0v-261h32V0H24" id="at"/><g id="e"><use transform="matrix(0.05,0,0,0.05,0,0)" xlink:href="#aj"/><use transform="matrix(0.05,0,0,0.05,10,0)" xlink:href="#ar"/><use transform="matrix(0.05,0,0,0.05,24.950000000000003,0)" xlink:href="#aq"/><use transform="matrix(0.05,0,0,0.05,34.95,0)" xlink:href="#as"/><use transform="matrix(0.05,0,0,0.05,38.900000000000006,0)" xlink:href="#at"/></g><path fill="#333" d="M100-194c62-1 85 37 85 99 1 63-27 99-86 99S16-35 15-95c0-66 28-99 85-99zM99-20c44 1 53-31 53-75 0-43-8-75-51-75s-53 32-53 75 10 74 51 75" id="au"/><g id="f"><use transform="matrix(0.05,0,0,0.05,0,0)" xlink:href="#ak"/><use transform="matrix(0.05,0,0,0.05,5.95,0)" xlink:href="#au"/><use transform="matrix(0.05,0,0,0.05,15.949999999999998,0)" xlink:href="#at"/><use transform="matrix(0.05,0,0,0.05,19.9,0)" xlink:href="#aj"/></g><path fill="#333" d="M177-190C167-65 218 103 67 71c-23-6-38-20-44-43l32-5c15 47 100 32 89-28v-30C133-14 115 1 83 1 29 1 15-40 15-95c0-56 16-97 71-98 29-1 48 16 59 35 1-10 0-23 2-32h30zM94-22c36 0 50-32 50-73 0-42-14-75-50-75-39 0-46 34-46 75s6 73 46 73" id="av"/><g id="g"><use transform="matrix(0.05,0,0,0.05,0,0)" xlink:href="#as"/><use transform="matrix(0.05,0,0,0.05,3.95,0)" xlink:href="#ar"/><use transform="matrix(0.05,0,0,0.05,18.900000000000002,0)" xlink:href="#aq"/><use transform="matrix(0.05,0,0,0.05,28.900000000000002,0)" xlink:href="#av"/><use transform="matrix(0.05,0,0,0.05,38.900000000000006,0)" xlink:href="#aj"/></g><path fill="#333" d="M117-194c89-4 53 116 60 194h-32v-121c0-31-8-49-39-48C34-167 62-67 57 0H25l-1-190h30c1 10-1 24 2 32 11-22 29-35 61-36" id="aw"/><path fill="#333" d="M115-194c53 0 69 39 70 98 0 66-23 100-70 100C84 3 66-7 56-30L54 0H23l1-261h32v101c10-23 28-34 59-34zm-8 174c40 0 45-34 45-75 0-40-5-75-45-74-42 0-51 32-51 76 0 43 10 73 51 73" id="ax"/><g id="h"><use transform="matrix(0.05,0,0,0.05,0,0)" xlink:href="#aw"/><use transform="matrix(0.05,0,0,0.05,10,0)" xlink:href="#ah"/><use transform="matrix(0.05,0,0,0.05,20,0)" xlink:href="#ar"/><use transform="matrix(0.05,0,0,0.05,34.95,0)" xlink:href="#ax"/><use transform="matrix(0.05,0,0,0.05,44.95,0)" xlink:href="#aj"/><use transform="matrix(0.05,0,0,0.05,54.95,0)" xlink:href="#ak"/></g><path fill="#fff" d="M233-177c-1 41-23 64-60 70L243 0h-38l-65-103H63V0H30v-248c88 3 205-21 203 71zM63-129c60-2 137 13 137-47 0-61-80-42-137-45v92" id="ay"/><path fill="#fff" d="M108 0H70L1-190h34L89-25l56-165h34" id="az"/><path fill="#fff" d="M206 0h-36l-40-164L89 0H53L-1-190h32L70-26l43-164h34l41 164 42-164h31" id="aA"/><g id="i"><use transform="matrix(0.0685185185185185,0,0,0.0685185185185185,0,0)" xlink:href="#ay"/><use transform="matrix(0.0685185185185185,0,0,0.0685185185185185,17.746296296296293,0)" xlink:href="#Y"/><use transform="matrix(0.0685185185185185,0,0,0.0685185185185185,31.449999999999996,0)" xlink:href="#az"/><use transform="matrix(0.0685185185185185,0,0,0.0685185185185185,43.783333333333324,0)" xlink:href="#af"/><use transform="matrix(0.0685185185185185,0,0,0.0685185185185185,49.19629629629629,0)" xlink:href="#Y"/><use transform="matrix(0.0685185185185185,0,0,0.0685185185185185,62.89999999999999,0)" xlink:href="#aA"/><use transform="matrix(0.0685185185185185,0,0,0.0685185185185185,80.64629629629628,0)" xlink:href="#aa"/><use transform="matrix(0.0685185185185185,0,0,0.0685185185185185,98.39259259259258,0)" xlink:href="#ab"/><use transform="matrix(0.0685185185185185,0,0,0.0685185185185185,112.09629629629627,0)" xlink:href="#ac"/><use transform="matrix(0.0685185185185185,0,0,0.0685185185185185,117.50925925925924,0)" xlink:href="#ac"/><use transform="matrix(0.0685185185185185,0,0,0.0685185185185185,122.9222222222222,0)" xlink:href="#Y"/><use transform="matrix(0.0685185185185185,0,0,0.0685185185185185,136.6259259259259,0)" xlink:href="#ad"/><use transform="matrix(0.0685185185185185,0,0,0.0685185185185185,148.95925925925926,0)" xlink:href="#ae"/><use transform="matrix(0.0685185185185185,0,0,0.0685185185185185,155.8111111111111,0)" xlink:href="#af"/><use transform="matrix(0.0685185185185185,0,0,0.0685185185185185,161.22407407407405,0)" xlink:href="#ab"/><use transform="matrix(0.0685185185185185,0,0,0.0685185185185185,174.92777777777775,0)" xlink:href="#ag"/></g><path fill="#333" d="M108 0H70L1-190h34L89-25l56-165h34" id="aB"/><path fill="#333" d="M206 0h-36l-40-164L89 0H53L-1-190h32L70-26l43-164h34l41 164 42-164h31" id="aC"/><g id="j"><use transform="matrix(0.05,0,0,0.05,0,0)" xlink:href="#ak"/><use transform="matrix(0.05,0,0,0.05,5.95,0)" xlink:href="#aj"/><use transform="matrix(0.05,0,0,0.05,15.949999999999998,0)" xlink:href="#aB"/><use transform="matrix(0.05,0,0,0.05,24.95,0)" xlink:href="#as"/><use transform="matrix(0.05,0,0,0.05,28.899999999999995,0)" xlink:href="#aj"/><use transform="matrix(0.05,0,0,0.05,38.9,0)" xlink:href="#aC"/><use transform="matrix(0.05,0,0,0.05,51.85,0)" xlink:href="#al"/><use transform="matrix(0.05,0,0,0.05,56.85,0)" xlink:href="#am"/></g><path fill="#333" d="M30-248c87 1 191-15 191 75 0 78-77 80-158 76V0H30v-248zm33 125c57 0 124 11 124-50 0-59-68-47-124-48v98" id="aD"/><path fill="#333" d="M194 0L95-120 63-95V0H30v-248h33v124l119-124h40L117-140 236 0h-42" id="aE"/><g id="k"><use transform="matrix(0.05,0,0,0.05,0,0)" xlink:href="#aD"/><use transform="matrix(0.05,0,0,0.05,12,0)" xlink:href="#aE"/></g><path fill="#333" d="M143 4C61 4 22-44 18-125c-5-107 100-154 193-111 17 8 29 25 37 43l-32 9c-13-25-37-40-76-40-61 0-88 39-88 99 0 61 29 100 91 101 35 0 62-11 79-27v-45h-74v-28h105v86C228-13 192 4 143 4" id="aF"/><g id="l"><use transform="matrix(0.05,0,0,0.05,0,0)" xlink:href="#ak"/><use transform="matrix(0.05,0,0,0.05,5.95,0)" xlink:href="#aj"/><use transform="matrix(0.05,0,0,0.05,15.949999999999998,0)" xlink:href="#aB"/><use transform="matrix(0.05,0,0,0.05,24.95,0)" xlink:href="#as"/><use transform="matrix(0.05,0,0,0.05,28.899999999999995,0)" xlink:href="#aj"/><use transform="matrix(0.05,0,0,0.05,38.9,0)" xlink:href="#aC"/><use transform="matrix(0.05,0,0,0.05,51.85,0)" xlink:href="#aF"/><use transform="matrix(0.05,0,0,0.05,65.85,0)" xlink:href="#as"/><use transform="matrix(0.05,0,0,0.05,69.8,0)" xlink:href="#aB"/><use transform="matrix(0.05,0,0,0.05,78.8,0)" xlink:href="#aj"/><use transform="matrix(0.05,0,0,0.05,88.8,0)" xlink:href="#ak"/><use transform="matrix(0.05,0,0,0.05,94.75,0)" xlink:href="#as"/><use transform="matrix(0.05,0,0,0.05,98.7,0)" xlink:href="#am"/></g><path fill="#333" d="M101-234c-31-9-42 10-38 44h38v23H63V0H32v-167H5v-23h27c-7-52 17-82 69-68v24" id="aG"/><g id="m"><use transform="matrix(0.05,0,0,0.05,0,0)" xlink:href="#aG"/><use transform="matrix(0.05,0,0,0.05,5,0)" xlink:href="#ao"/></g><path fill="#333" d="M59-47c-2 24 18 29 38 22v24C64 9 27 4 27-40v-127H5v-23h24l9-43h21v43h35v23H59v120" id="aH"/><g id="n"><use transform="matrix(0.05,0,0,0.05,0,0)" xlink:href="#ak"/><use transform="matrix(0.05,0,0,0.05,5.95,0)" xlink:href="#aq"/><use transform="matrix(0.05,0,0,0.05,15.949999999999998,0)" xlink:href="#aH"/><use transform="matrix(0.05,0,0,0.05,20.95,0)" xlink:href="#as"/><use transform="matrix(0.05,0,0,0.05,24.9,0)" xlink:href="#aw"/><use transform="matrix(0.05,0,0,0.05,34.9,0)" xlink:href="#av"/></g><path fill="#333" d="M96-169c-40 0-48 33-48 73s9 75 48 75c24 0 41-14 43-38l32 2c-6 37-31 61-74 61-59 0-76-41-82-99-10-93 101-131 147-64 4 7 5 14 7 22l-32 3c-4-21-16-35-41-35" id="aI"/><g id="o"><use transform="matrix(0.05,0,0,0.05,0,0)" xlink:href="#aG"/><use transform="matrix(0.05,0,0,0.05,5,0)" xlink:href="#aj"/><use transform="matrix(0.05,0,0,0.05,15,0)" xlink:href="#aj"/><use transform="matrix(0.05,0,0,0.05,25,0)" xlink:href="#am"/><use transform="matrix(0.05,0,0,0.05,35,0)" xlink:href="#ax"/><use transform="matrix(0.05,0,0,0.05,45,0)" xlink:href="#aq"/><use transform="matrix(0.05,0,0,0.05,55,0)" xlink:href="#aI"/><use transform="matrix(0.05,0,0,0.05,64,0)" xlink:href="#ao"/></g><g id="p"><use transform="matrix(0.05,0,0,0.05,0,0)" xlink:href="#ak"/><use transform="matrix(0.05,0,0,0.05,5.95,0)" xlink:href="#aj"/><use transform="matrix(0.05,0,0,0.05,15.949999999999998,0)" xlink:href="#aB"/><use transform="matrix(0.05,0,0,0.05,24.95,0)" xlink:href="#as"/><use transform="matrix(0.05,0,0,0.05,28.899999999999995,0)" xlink:href="#aj"/><use transform="matrix(0.05,0,0,0.05,38.9,0)" xlink:href="#aC"/><use transform="matrix(0.05,0,0,0.05,51.85,0)" xlink:href="#aF"/><use transform="matrix(0.05,0,0,0.05,65.85,0)" xlink:href="#as"/><use transform="matrix(0.05,0,0,0.05,69.8,0)" xlink:href="#aB"/><use transform="matrix(0.05,0,0,0.05,78.8,0)" xlink:href="#aj"/><use transform="matrix(0.05,0,0,0.05,88.8,0)" xlink:href="#ak"/><use transform="matrix(0.05,0,0,0.05,94.75,0)" xlink:href="#ap"/><use transform="matrix(0.05,0,0,0.05,107.7,0)" xlink:href="#aq"/><use transform="matrix(0.05,0,0,0.05,117.7,0)" xlink:href="#ar"/><use transform="matrix(0.05,0,0,0.05,132.65,0)" xlink:href="#aj"/></g><g id="q"><use transform="matrix(0.05,0,0,0.05,0,0)" xlink:href="#ak"/><use transform="matrix(0.05,0,0,0.05,5.95,0)" xlink:href="#aj"/><use transform="matrix(0.05,0,0,0.05,15.949999999999998,0)" xlink:href="#aB"/><use transform="matrix(0.05,0,0,0.05,24.95,0)" xlink:href="#as"/><use transform="matrix(0.05,0,0,0.05,28.899999999999995,0)" xlink:href="#aj"/><use transform="matrix(0.05,0,0,0.05,38.9,0)" xlink:href="#aC"/><use transform="matrix(0.05,0,0,0.05,51.85,0)" xlink:href="#aF"/><use transform="matrix(0.05,0,0,0.05,65.85,0)" xlink:href="#as"/><use transform="matrix(0.05,0,0,0.05,69.8,0)" xlink:href="#aB"/><use transform="matrix(0.05,0,0,0.05,78.8,0)" xlink:href="#aj"/><use transform="matrix(0.05,0,0,0.05,88.8,0)" xlink:href="#ak"/><use transform="matrix(0.05,0,0,0.05,94.75,0)" xlink:href="#al"/><use transform="matrix(0.05,0,0,0.05,99.75,0)" xlink:href="#ar"/><use transform="matrix(0.05,0,0,0.05,114.7,0)" xlink:href="#aq"/><use transform="matrix(0.05,0,0,0.05,124.7,0)" xlink:href="#av"/><use transform="matrix(0.05,0,0,0.05,134.7,0)" xlink:href="#aj"/></g><path fill="#333" d="M30-248c118-7 216 8 213 122C240-48 200 0 122 0H30v-248zM63-27c89 8 146-16 146-99s-60-101-146-95v194" id="aJ"/><g id="r"><use transform="matrix(0.05,0,0,0.05,0,0)" xlink:href="#ak"/><use transform="matrix(0.05,0,0,0.05,5.95,0)" xlink:href="#aj"/><use transform="matrix(0.05,0,0,0.05,15.949999999999998,0)" xlink:href="#aB"/><use transform="matrix(0.05,0,0,0.05,24.95,0)" xlink:href="#as"/><use transform="matrix(0.05,0,0,0.05,28.899999999999995,0)" xlink:href="#aj"/><use transform="matrix(0.05,0,0,0.05,38.9,0)" xlink:href="#aC"/><use transform="matrix(0.05,0,0,0.05,51.85,0)" xlink:href="#aF"/><use transform="matrix(0.05,0,0,0.05,65.85,0)" xlink:href="#as"/><use transform="matrix(0.05,0,0,0.05,69.8,0)" xlink:href="#aB"/><use transform="matrix(0.05,0,0,0.05,78.8,0)" xlink:href="#aj"/><use transform="matrix(0.05,0,0,0.05,88.8,0)" xlink:href="#aw"/><use transform="matrix(0.05,0,0,0.05,98.8,0)" xlink:href="#aJ"/><use transform="matrix(0.05,0,0,0.05,111.75,0)" xlink:href="#aq"/><use transform="matrix(0.05,0,0,0.05,121.75,0)" xlink:href="#aH"/><use transform="matrix(0.05,0,0,0.05,126.75,0)" xlink:href="#aj"/></g><path fill="#fff" d="M24 0v-248h195v40H76v63h132v40H76v65h150V0H24" id="aK"/><path fill="#fff" d="M135-194c87-1 58 113 63 194h-50c-7-57 23-157-34-157-59 0-34 97-39 157H25l-1-190h47c2 12-1 28 3 38 12-26 28-41 61-42" id="aL"/><path fill="#fff" d="M115-3C79 11 28 4 28-45v-112H4v-33h27l15-45h31v45h36v33H77v99c-1 23 16 31 38 25v30" id="aM"/><path fill="#fff" d="M25-224v-37h50v37H25zM25 0v-190h50V0H25" id="aN"/><path fill="#fff" d="M123 10C108 53 80 86 19 72V37c35 8 53-11 59-39L3-190h52l48 148c12-52 28-100 44-148h51" id="aO"/><g id="s"><use transform="matrix(0.0685185185185185,0,0,0.0685185185185185,0,0)" xlink:href="#aK"/><use transform="matrix(0.0685185185185185,0,0,0.0685185185185185,16.444444444444443,0)" xlink:href="#aL"/><use transform="matrix(0.0685185185185185,0,0,0.0685185185185185,31.449999999999996,0)" xlink:href="#aM"/><use transform="matrix(0.0685185185185185,0,0,0.0685185185185185,39.6037037037037,0)" xlink:href="#aN"/><use transform="matrix(0.0685185185185185,0,0,0.0685185185185185,46.45555555555555,0)" xlink:href="#aM"/><use transform="matrix(0.0685185185185185,0,0,0.0685185185185185,54.60925925925925,0)" xlink:href="#aO"/></g><g id="t"><use transform="matrix(0.05,0,0,0.05,0,0)" xlink:href="#ax"/><use transform="matrix(0.05,0,0,0.05,10,0)" xlink:href="#au"/><use transform="matrix(0.05,0,0,0.05,20,0)" xlink:href="#au"/><use transform="matrix(0.05,0,0,0.05,30,0)" xlink:href="#ao"/><use transform="matrix(0.05,0,0,0.05,39,0)" xlink:href="#aj"/><use transform="matrix(0.05,0,0,0.05,49,0)" xlink:href="#am"/><use transform="matrix(0.05,0,0,0.05,59,0)" xlink:href="#al"/><use transform="matrix(0.05,0,0,0.05,64,0)" xlink:href="#am"/></g><path fill="#333" d="M179-190L93 31C79 59 56 82 12 73V49c39 6 53-20 64-50L1-190h34L92-34l54-156h33" id="aP"/><path fill="#333" d="M197 0v-115H63V0H30v-248h33v105h134v-105h34V0h-34" id="aQ"/><g id="u"><use transform="matrix(0.05,0,0,0.05,0,0)" xlink:href="#am"/><use transform="matrix(0.05,0,0,0.05,10,0)" xlink:href="#aj"/><use transform="matrix(0.05,0,0,0.05,20,0)" xlink:href="#at"/><use transform="matrix(0.05,0,0,0.05,23.95,0)" xlink:href="#as"/><use transform="matrix(0.05,0,0,0.05,27.899999999999995,0)" xlink:href="#aB"/><use transform="matrix(0.05,0,0,0.05,36.9,0)" xlink:href="#aj"/><use transform="matrix(0.05,0,0,0.05,46.9,0)" xlink:href="#ak"/><use transform="matrix(0.05,0,0,0.05,52.85,0)" xlink:href="#aP"/><use transform="matrix(0.05,0,0,0.05,61.85,0)" xlink:href="#aQ"/><use transform="matrix(0.05,0,0,0.05,74.8,0)" xlink:href="#aj"/><use transform="matrix(0.05,0,0,0.05,84.8,0)" xlink:href="#ak"/><use transform="matrix(0.05,0,0,0.05,90.75,0)" xlink:href="#au"/><use transform="matrix(0.05,0,0,0.05,100.75,0)" xlink:href="#al"/><use transform="matrix(0.05,0,0,0.05,105.75,0)" xlink:href="#am"/></g><g id="v"><use transform="matrix(0.05,0,0,0.05,0,0)" xlink:href="#ai"/><use transform="matrix(0.05,0,0,0.05,9,0)" xlink:href="#aj"/><use transform="matrix(0.05,0,0,0.05,19,0)" xlink:href="#aw"/><use transform="matrix(0.05,0,0,0.05,29,0)" xlink:href="#am"/><use transform="matrix(0.05,0,0,0.05,39,0)" xlink:href="#aj"/><use transform="matrix(0.05,0,0,0.05,49,0)" xlink:href="#ak"/><use transform="matrix(0.05,0,0,0.05,54.95,0)" xlink:href="#al"/><use transform="matrix(0.05,0,0,0.05,59.95,0)" xlink:href="#am"/></g><path fill="#333" d="M145-31C134-9 116 4 85 4 32 4 16-35 15-94c0-59 17-99 70-100 32-1 48 14 60 33 0-11-1-24 2-32h30l-1 268h-32zM93-21c41 0 51-33 51-76s-8-73-50-73c-40 0-46 35-46 75s5 74 45 74" id="aR"/><g id="w"><use transform="matrix(0.05,0,0,0.05,0,0)" xlink:href="#ak"/><use transform="matrix(0.05,0,0,0.05,5.95,0)" xlink:href="#aj"/><use transform="matrix(0.05,0,0,0.05,15.949999999999998,0)" xlink:href="#aR"/><use transform="matrix(0.05,0,0,0.05,25.950000000000003,0)" xlink:href="#aJ"/><use transform="matrix(0.05,0,0,0.05,38.9,0)" xlink:href="#aj"/><use transform="matrix(0.05,0,0,0.05,48.9,0)" xlink:href="#at"/><use transform="matrix(0.05,0,0,0.05,52.85,0)" xlink:href="#as"/><use transform="matrix(0.05,0,0,0.05,56.800000000000004,0)" xlink:href="#aB"/><use transform="matrix(0.05,0,0,0.05,65.80000000000001,0)" xlink:href="#aj"/><use transform="matrix(0.05,0,0,0.05,75.80000000000001,0)" xlink:href="#ak"/><use transform="matrix(0.05,0,0,0.05,81.75000000000001,0)" xlink:href="#aP"/><use transform="matrix(0.05,0,0,0.05,90.75000000000001,0)" xlink:href="#aJ"/><use transform="matrix(0.05,0,0,0.05,103.7,0)" xlink:href="#aq"/><use transform="matrix(0.05,0,0,0.05,113.7,0)" xlink:href="#aH"/><use transform="matrix(0.05,0,0,0.05,118.7,0)" xlink:href="#aj"/></g><path fill="#333" d="M127-220V0H93v-220H8v-28h204v28h-85" id="aS"/><g id="x"><use transform="matrix(0.05,0,0,0.05,0,0)" xlink:href="#an"/><use transform="matrix(0.05,0,0,0.05,10,0)" xlink:href="#aq"/><use transform="matrix(0.05,0,0,0.05,20,0)" xlink:href="#ak"/><use transform="matrix(0.05,0,0,0.05,25.950000000000003,0)" xlink:href="#aI"/><use transform="matrix(0.05,0,0,0.05,34.95,0)" xlink:href="#aj"/><use transform="matrix(0.05,0,0,0.05,44.95,0)" xlink:href="#at"/><use transform="matrix(0.05,0,0,0.05,48.900000000000006,0)" xlink:href="#aS"/><use transform="matrix(0.05,0,0,0.05,58.85,0)" xlink:href="#aP"/><use transform="matrix(0.05,0,0,0.05,67.85000000000001,0)" xlink:href="#an"/><use transform="matrix(0.05,0,0,0.05,77.85000000000001,0)" xlink:href="#aj"/></g><path fill="#333" d="M266 0h-40l-56-210L115 0H75L2-248h35L96-30l15-64 43-154h32l59 218 59-218h35" id="aT"/><path fill="#333" d="M106-169C34-169 62-67 57 0H25v-261h32l-1 103c12-21 28-36 61-36 89 0 53 116 60 194h-32v-121c2-32-8-49-39-48" id="aU"/><g id="y"><use transform="matrix(0.05,0,0,0.05,0,0)" xlink:href="#an"/><use transform="matrix(0.05,0,0,0.05,10,0)" xlink:href="#aq"/><use transform="matrix(0.05,0,0,0.05,20,0)" xlink:href="#ak"/><use transform="matrix(0.05,0,0,0.05,25.950000000000003,0)" xlink:href="#aI"/><use transform="matrix(0.05,0,0,0.05,34.95,0)" xlink:href="#aj"/><use transform="matrix(0.05,0,0,0.05,44.95,0)" xlink:href="#at"/><use transform="matrix(0.05,0,0,0.05,48.900000000000006,0)" xlink:href="#aT"/><use transform="matrix(0.05,0,0,0.05,65.5,0)" xlink:href="#aj"/><use transform="matrix(0.05,0,0,0.05,75.5,0)" xlink:href="#as"/><use transform="matrix(0.05,0,0,0.05,79.45,0)" xlink:href="#av"/><use transform="matrix(0.05,0,0,0.05,89.45,0)" xlink:href="#aU"/><use transform="matrix(0.05,0,0,0.05,99.45,0)" xlink:href="#aH"/></g><path fill="#333" d="M141 0L90-78 38 0H4l68-98-65-92h35l48 74 47-74h35l-64 92 68 98h-35" id="aV"/><g id="z"><use transform="matrix(0.05,0,0,0.05,0,0)" xlink:href="#aq"/><use transform="matrix(0.05,0,0,0.05,10,0)" xlink:href="#an"/><use transform="matrix(0.05,0,0,0.05,20,0)" xlink:href="#an"/><use transform="matrix(0.05,0,0,0.05,30,0)" xlink:href="#ak"/><use transform="matrix(0.05,0,0,0.05,35.95,0)" xlink:href="#au"/><use transform="matrix(0.05,0,0,0.05,45.95,0)" xlink:href="#aV"/><use transform="matrix(0.05,0,0,0.05,54.95,0)" xlink:href="#aJ"/><use transform="matrix(0.05,0,0,0.05,67.9,0)" xlink:href="#aj"/><use transform="matrix(0.05,0,0,0.05,77.9,0)" xlink:href="#at"/><use transform="matrix(0.05,0,0,0.05,81.85000000000001,0)" xlink:href="#as"/><use transform="matrix(0.05,0,0,0.05,85.80000000000001,0)" xlink:href="#aB"/><use transform="matrix(0.05,0,0,0.05,94.80000000000001,0)" xlink:href="#aj"/><use transform="matrix(0.05,0,0,0.05,104.80000000000001,0)" xlink:href="#ak"/><use transform="matrix(0.05,0,0,0.05,110.75,0)" xlink:href="#aP"/><use transform="matrix(0.05,0,0,0.05,119.75,0)" xlink:href="#aJ"/><use transform="matrix(0.05,0,0,0.05,132.70000000000002,0)" xlink:href="#aq"/><use transform="matrix(0.05,0,0,0.05,142.70000000000002,0)" xlink:href="#aH"/><use transform="matrix(0.05,0,0,0.05,147.70000000000002,0)" xlink:href="#aj"/></g><g id="A"><use transform="matrix(0.05,0,0,0.05,0,0)" xlink:href="#ai"/><use transform="matrix(0.05,0,0,0.05,9,0)" xlink:href="#aH"/><use transform="matrix(0.05,0,0,0.05,14,0)" xlink:href="#aq"/><use transform="matrix(0.05,0,0,0.05,24,0)" xlink:href="#aH"/><use transform="matrix(0.05,0,0,0.05,29,0)" xlink:href="#ah"/><use transform="matrix(0.05,0,0,0.05,39,0)" xlink:href="#ai"/></g><path fill="#333" d="M30 0v-248h187v28H63v79h144v27H63v87h162V0H30" id="aW"/><g id="B"><use transform="matrix(0.05,0,0,0.05,0,0)" xlink:href="#ai"/><use transform="matrix(0.05,0,0,0.05,9,0)" xlink:href="#aj"/><use transform="matrix(0.05,0,0,0.05,19,0)" xlink:href="#aw"/><use transform="matrix(0.05,0,0,0.05,29,0)" xlink:href="#am"/><use transform="matrix(0.05,0,0,0.05,39,0)" xlink:href="#aj"/><use transform="matrix(0.05,0,0,0.05,49,0)" xlink:href="#ak"/><use transform="matrix(0.05,0,0,0.05,54.95,0)" xlink:href="#aW"/><use transform="matrix(0.05,0,0,0.05,66.95,0)" xlink:href="#ar"/><use transform="matrix(0.05,0,0,0.05,81.9,0)" xlink:href="#aq"/><use transform="matrix(0.05,0,0,0.05,91.9,0)" xlink:href="#as"/><use transform="matrix(0.05,0,0,0.05,95.85000000000001,0)" xlink:href="#at"/></g><g id="C"><use transform="matrix(0.05,0,0,0.05,0,0)" xlink:href="#ai"/><use transform="matrix(0.05,0,0,0.05,9,0)" xlink:href="#aj"/><use transform="matrix(0.05,0,0,0.05,19,0)" xlink:href="#aw"/><use transform="matrix(0.05,0,0,0.05,29,0)" xlink:href="#am"/><use transform="matrix(0.05,0,0,0.05,39,0)" xlink:href="#aj"/><use transform="matrix(0.05,0,0,0.05,49,0)" xlink:href="#ak"/><use transform="matrix(0.05,0,0,0.05,54.95,0)" xlink:href="#ap"/><use transform="matrix(0.05,0,0,0.05,67.9,0)" xlink:href="#aq"/><use transform="matrix(0.05,0,0,0.05,77.9,0)" xlink:href="#ar"/><use transform="matrix(0.05,0,0,0.05,92.85000000000001,0)" xlink:href="#aj"/></g><g id="D"><use transform="matrix(0.05,0,0,0.05,0,0)" xlink:href="#ai"/><use transform="matrix(0.05,0,0,0.05,9,0)" xlink:href="#aj"/><use transform="matrix(0.05,0,0,0.05,19,0)" xlink:href="#aw"/><use transform="matrix(0.05,0,0,0.05,29,0)" xlink:href="#am"/><use transform="matrix(0.05,0,0,0.05,39,0)" xlink:href="#aj"/><use transform="matrix(0.05,0,0,0.05,49,0)" xlink:href="#ak"/><use transform="matrix(0.05,0,0,0.05,54.95,0)" xlink:href="#ap"/><use transform="matrix(0.05,0,0,0.05,67.9,0)" xlink:href="#ah"/><use transform="matrix(0.05,0,0,0.05,77.9,0)" xlink:href="#ar"/><use transform="matrix(0.05,0,0,0.05,92.85000000000001,0)" xlink:href="#ax"/><use transform="matrix(0.05,0,0,0.05,102.85000000000001,0)" xlink:href="#aj"/><use transform="matrix(0.05,0,0,0.05,112.85000000000001,0)" xlink:href="#ak"/></g><g id="E"><use transform="matrix(0.05,0,0,0.05,0,0)" xlink:href="#ak"/><use transform="matrix(0.05,0,0,0.05,5.95,0)" xlink:href="#aj"/><use transform="matrix(0.05,0,0,0.05,15.949999999999998,0)" xlink:href="#aI"/><use transform="matrix(0.05,0,0,0.05,24.95,0)" xlink:href="#aj"/><use transform="matrix(0.05,0,0,0.05,34.95,0)" xlink:href="#as"/><use transform="matrix(0.05,0,0,0.05,38.900000000000006,0)" xlink:href="#aB"/><use transform="matrix(0.05,0,0,0.05,47.900000000000006,0)" xlink:href="#aj"/><use transform="matrix(0.05,0,0,0.05,57.900000000000006,0)" xlink:href="#ak"/><use transform="matrix(0.05,0,0,0.05,63.85,0)" xlink:href="#ap"/><use transform="matrix(0.05,0,0,0.05,76.80000000000001,0)" xlink:href="#aq"/><use transform="matrix(0.05,0,0,0.05,86.80000000000001,0)" xlink:href="#ar"/><use transform="matrix(0.05,0,0,0.05,101.75000000000001,0)" xlink:href="#aj"/></g><g id="F"><use transform="matrix(0.05,0,0,0.05,0,0)" xlink:href="#ak"/><use transform="matrix(0.05,0,0,0.05,5.95,0)" xlink:href="#aj"/><use transform="matrix(0.05,0,0,0.05,15.949999999999998,0)" xlink:href="#aI"/><use transform="matrix(0.05,0,0,0.05,24.95,0)" xlink:href="#aj"/><use transform="matrix(0.05,0,0,0.05,34.95,0)" xlink:href="#as"/><use transform="matrix(0.05,0,0,0.05,38.900000000000006,0)" xlink:href="#aB"/><use transform="matrix(0.05,0,0,0.05,47.900000000000006,0)" xlink:href="#aj"/><use transform="matrix(0.05,0,0,0.05,57.900000000000006,0)" xlink:href="#ak"/><use transform="matrix(0.05,0,0,0.05,63.85,0)" xlink:href="#ap"/><use transform="matrix(0.05,0,0,0.05,76.80000000000001,0)" xlink:href="#ah"/><use transform="matrix(0.05,0,0,0.05,86.80000000000001,0)" xlink:href="#ar"/><use transform="matrix(0.05,0,0,0.05,101.75000000000001,0)" xlink:href="#ax"/><use transform="matrix(0.05,0,0,0.05,111.75,0)" xlink:href="#aj"/><use transform="matrix(0.05,0,0,0.05,121.75,0)" xlink:href="#ak"/></g><path fill="#333" d="M205 0l-28-72H64L36 0H1l101-248h38L239 0h-34zm-38-99l-47-123c-12 45-31 82-46 123h93" id="aX"/><g id="G"><use transform="matrix(0.05,0,0,0.05,0,0)" xlink:href="#ak"/><use transform="matrix(0.05,0,0,0.05,5.95,0)" xlink:href="#aj"/><use transform="matrix(0.05,0,0,0.05,15.949999999999998,0)" xlink:href="#aI"/><use transform="matrix(0.05,0,0,0.05,24.95,0)" xlink:href="#aj"/><use transform="matrix(0.05,0,0,0.05,34.95,0)" xlink:href="#as"/><use transform="matrix(0.05,0,0,0.05,38.900000000000006,0)" xlink:href="#aB"/><use transform="matrix(0.05,0,0,0.05,47.900000000000006,0)" xlink:href="#aj"/><use transform="matrix(0.05,0,0,0.05,57.900000000000006,0)" xlink:href="#ak"/><use transform="matrix(0.05,0,0,0.05,63.85,0)" xlink:href="#aJ"/><use transform="matrix(0.05,0,0,0.05,76.80000000000001,0)" xlink:href="#aj"/><use transform="matrix(0.05,0,0,0.05,86.80000000000001,0)" xlink:href="#at"/><use transform="matrix(0.05,0,0,0.05,90.75000000000001,0)" xlink:href="#as"/><use transform="matrix(0.05,0,0,0.05,94.70000000000002,0)" xlink:href="#aB"/><use transform="matrix(0.05,0,0,0.05,103.7,0)" xlink:href="#aj"/><use transform="matrix(0.05,0,0,0.05,113.7,0)" xlink:href="#ak"/><use transform="matrix(0.05,0,0,0.05,119.65000000000003,0)" xlink:href="#aP"/><use transform="matrix(0.05,0,0,0.05,128.65000000000003,0)" xlink:href="#aX"/><use transform="matrix(0.05,0,0,0.05,140.65000000000003,0)" xlink:href="#am"/><use transform="matrix(0.05,0,0,0.05,150.65000000000003,0)" xlink:href="#am"/><use transform="matrix(0.05,0,0,0.05,160.65000000000003,0)" xlink:href="#ak"/><use transform="matrix(0.05,0,0,0.05,166.60000000000002,0)" xlink:href="#aj"/><use transform="matrix(0.05,0,0,0.05,176.60000000000002,0)" xlink:href="#ai"/><use transform="matrix(0.05,0,0,0.05,185.60000000000002,0)" xlink:href="#ai"/></g><path fill="#333" d="M30 0v-248h33v221h125V0H30" id="aY"/><g id="H"><use transform="matrix(0.05,0,0,0.05,0,0)" xlink:href="#ak"/><use transform="matrix(0.05,0,0,0.05,5.95,0)" xlink:href="#aj"/><use transform="matrix(0.05,0,0,0.05,15.949999999999998,0)" xlink:href="#aI"/><use transform="matrix(0.05,0,0,0.05,24.95,0)" xlink:href="#aj"/><use transform="matrix(0.05,0,0,0.05,34.95,0)" xlink:href="#as"/><use transform="matrix(0.05,0,0,0.05,38.900000000000006,0)" xlink:href="#aB"/><use transform="matrix(0.05,0,0,0.05,47.900000000000006,0)" xlink:href="#aj"/><use transform="matrix(0.05,0,0,0.05,57.900000000000006,0)" xlink:href="#ak"/><use transform="matrix(0.05,0,0,0.05,63.85,0)" xlink:href="#aX"/><use transform="matrix(0.05,0,0,0.05,75.85000000000001,0)" xlink:href="#am"/><use transform="matrix(0.05,0,0,0.05,85.85000000000001,0)" xlink:href="#am"/><use transform="matrix(0.05,0,0,0.05,95.85000000000001,0)" xlink:href="#ak"/><use transform="matrix(0.05,0,0,0.05,101.80000000000001,0)" xlink:href="#aj"/><use transform="matrix(0.05,0,0,0.05,111.80000000000001,0)" xlink:href="#ai"/><use transform="matrix(0.05,0,0,0.05,120.80000000000001,0)" xlink:href="#ai"/><use transform="matrix(0.05,0,0,0.05,129.8,0)" xlink:href="#aY"/><use transform="matrix(0.05,0,0,0.05,139.8,0)" xlink:href="#au"/><use transform="matrix(0.05,0,0,0.05,149.8,0)" xlink:href="#aw"/><use transform="matrix(0.05,0,0,0.05,159.8,0)" xlink:href="#av"/><use transform="matrix(0.05,0,0,0.05,169.8,0)" xlink:href="#as"/><use transform="matrix(0.05,0,0,0.05,173.75,0)" xlink:href="#aH"/><use transform="matrix(0.05,0,0,0.05,178.75,0)" xlink:href="#ah"/><use transform="matrix(0.05,0,0,0.05,188.75,0)" xlink:href="#am"/><use transform="matrix(0.05,0,0,0.05,198.75,0)" xlink:href="#aj"/></g><g id="I"><use transform="matrix(0.05,0,0,0.05,0,0)" xlink:href="#ak"/><use transform="matrix(0.05,0,0,0.05,5.95,0)" xlink:href="#aj"/><use transform="matrix(0.05,0,0,0.05,15.949999999999998,0)" xlink:href="#aI"/><use transform="matrix(0.05,0,0,0.05,24.95,0)" xlink:href="#aj"/><use transform="matrix(0.05,0,0,0.05,34.95,0)" xlink:href="#as"/><use transform="matrix(0.05,0,0,0.05,38.900000000000006,0)" xlink:href="#aB"/><use transform="matrix(0.05,0,0,0.05,47.900000000000006,0)" xlink:href="#aj"/><use transform="matrix(0.05,0,0,0.05,57.900000000000006,0)" xlink:href="#ak"/><use transform="matrix(0.05,0,0,0.05,63.85,0)" xlink:href="#aX"/><use transform="matrix(0.05,0,0,0.05,75.85000000000001,0)" xlink:href="#am"/><use transform="matrix(0.05,0,0,0.05,85.85000000000001,0)" xlink:href="#am"/><use transform="matrix(0.05,0,0,0.05,95.85000000000001,0)" xlink:href="#ak"/><use transform="matrix(0.05,0,0,0.05,101.80000000000001,0)" xlink:href="#aj"/><use transform="matrix(0.05,0,0,0.05,111.80000000000001,0)" xlink:href="#ai"/><use transform="matrix(0.05,0,0,0.05,120.80000000000001,0)" xlink:href="#ai"/><use transform="matrix(0.05,0,0,0.05,129.8,0)" xlink:href="#aY"/><use transform="matrix(0.05,0,0,0.05,139.8,0)" xlink:href="#aq"/><use transform="matrix(0.05,0,0,0.05,149.8,0)" xlink:href="#aH"/><use transform="matrix(0.05,0,0,0.05,154.8,0)" xlink:href="#as"/><use transform="matrix(0.05,0,0,0.05,158.75,0)" xlink:href="#aH"/><use transform="matrix(0.05,0,0,0.05,163.75,0)" xlink:href="#ah"/><use transform="matrix(0.05,0,0,0.05,173.75,0)" xlink:href="#am"/><use transform="matrix(0.05,0,0,0.05,183.75,0)" xlink:href="#aj"/></g><g id="J"><use transform="matrix(0.05,0,0,0.05,0,0)" xlink:href="#an"/><use transform="matrix(0.05,0,0,0.05,10,0)" xlink:href="#ak"/><use transform="matrix(0.05,0,0,0.05,15.949999999999998,0)" xlink:href="#as"/><use transform="matrix(0.05,0,0,0.05,19.9,0)" xlink:href="#aI"/><use transform="matrix(0.05,0,0,0.05,28.899999999999995,0)" xlink:href="#aj"/></g><path fill="#fff" d="M30-248c118-7 216 8 213 122C240-48 200 0 122 0H30v-248zM63-27c89 8 146-16 146-99s-60-101-146-95v194" id="aZ"/><path fill="#fff" d="M85-194c31 0 48 13 60 33l-1-100h32l1 261h-30c-2-10 0-23-3-31C134-8 116 4 85 4 32 4 16-35 15-94c0-66 23-100 70-100zm9 24c-40 0-46 34-46 75 0 40 6 74 45 74 42 0 51-32 51-76 0-42-9-74-50-73" id="ba"/><path fill="#fff" d="M30-248c87 1 191-15 191 75 0 78-77 80-158 76V0H30v-248zm33 125c57 0 124 11 124-50 0-59-68-47-124-48v98" id="bb"/><path fill="#fff" d="M141-36C126-15 110 5 73 4 37 3 15-17 15-53c-1-64 63-63 125-63 3-35-9-54-41-54-24 1-41 7-42 31l-33-3c5-37 33-52 76-52 45 0 72 20 72 64v82c-1 20 7 32 28 27v20c-31 9-61-2-59-35zM48-53c0 20 12 33 32 33 41-3 63-29 60-74-43 2-92-5-92 41" id="bc"/><g id="K"><use transform="matrix(0.0685185185185185,0,0,0.0685185185185185,0,0)" xlink:href="#aZ"/><use transform="matrix(0.0685185185185185,0,0,0.0685185185185185,17.746296296296293,0)" xlink:href="#Y"/><use transform="matrix(0.0685185185185185,0,0,0.0685185185185185,31.449999999999996,0)" xlink:href="#ac"/><use transform="matrix(0.0685185185185185,0,0,0.0685185185185185,36.86296296296297,0)" xlink:href="#af"/><use transform="matrix(0.0685185185185185,0,0,0.0685185185185185,42.275925925925925,0)" xlink:href="#az"/><use transform="matrix(0.0685185185185185,0,0,0.0685185185185185,54.609259259259254,0)" xlink:href="#Y"/><use transform="matrix(0.0685185185185185,0,0,0.0685185185185185,68.31296296296296,0)" xlink:href="#Z"/><use transform="matrix(0.0685185185185185,0,0,0.0685185185185185,76.46666666666665,0)" xlink:href="#Y"/><use transform="matrix(0.0685185185185185,0,0,0.0685185185185185,90.17037037037035,0)" xlink:href="#ba"/><use transform="matrix(0.0685185185185185,0,0,0.0685185185185185,103.87407407407404,0)" xlink:href="#bb"/><use transform="matrix(0.0685185185185185,0,0,0.0685185185185185,120.31851851851849,0)" xlink:href="#bc"/><use transform="matrix(0.0685185185185185,0,0,0.0685185185185185,134.02222222222218,0)" xlink:href="#Z"/><use transform="matrix(0.0685185185185185,0,0,0.0685185185185185,142.1759259259259,0)" xlink:href="#ad"/><use transform="matrix(0.0685185185185185,0,0,0.0685185185185185,154.50925925925924,0)" xlink:href="#Y"/><use transform="matrix(0.0685185185185185,0,0,0.0685185185185185,168.21296296296293,0)" xlink:href="#ac"/><use transform="matrix(0.0685185185185185,0,0,0.0685185185185185,173.62592592592588,0)" xlink:href="#X"/></g><g id="L"><use transform="matrix(0.05,0,0,0.05,0,0)" xlink:href="#as"/><use transform="matrix(0.05,0,0,0.05,3.95,0)" xlink:href="#am"/></g><g id="M"><use transform="matrix(0.05,0,0,0.05,0,0)" xlink:href="#ax"/><use transform="matrix(0.05,0,0,0.05,10,0)" xlink:href="#au"/><use transform="matrix(0.05,0,0,0.05,20,0)" xlink:href="#au"/><use transform="matrix(0.05,0,0,0.05,30,0)" xlink:href="#ao"/><use transform="matrix(0.05,0,0,0.05,39,0)" xlink:href="#aj"/><use transform="matrix(0.05,0,0,0.05,49,0)" xlink:href="#am"/><use transform="matrix(0.05,0,0,0.05,59,0)" xlink:href="#as"/><use transform="matrix(0.05,0,0,0.05,62.95,0)" xlink:href="#am"/></g><g id="N"><use transform="matrix(0.05,0,0,0.05,0,0)" xlink:href="#am"/><use transform="matrix(0.05,0,0,0.05,10,0)" xlink:href="#aj"/><use transform="matrix(0.05,0,0,0.05,20,0)" xlink:href="#at"/><use transform="matrix(0.05,0,0,0.05,23.95,0)" xlink:href="#as"/><use transform="matrix(0.05,0,0,0.05,27.899999999999995,0)" xlink:href="#aB"/><use transform="matrix(0.05,0,0,0.05,36.9,0)" xlink:href="#aj"/><use transform="matrix(0.05,0,0,0.05,46.9,0)" xlink:href="#ak"/><use transform="matrix(0.05,0,0,0.05,52.85,0)" xlink:href="#aP"/><use transform="matrix(0.05,0,0,0.05,61.85,0)" xlink:href="#aJ"/><use transform="matrix(0.05,0,0,0.05,74.8,0)" xlink:href="#aq"/><use transform="matrix(0.05,0,0,0.05,84.8,0)" xlink:href="#aH"/><use transform="matrix(0.05,0,0,0.05,89.8,0)" xlink:href="#aj"/></g><g id="O"><use transform="matrix(0.0685185185185185,0,0,0.0685185185185185,0,0)" xlink:href="#aa"/><use transform="matrix(0.0685185185185185,0,0,0.0685185185185185,17.746296296296293,0)" xlink:href="#bc"/><use transform="matrix(0.0685185185185185,0,0,0.0685185185185185,31.449999999999996,0)" xlink:href="#ag"/><use transform="matrix(0.0685185185185185,0,0,0.0685185185185185,45.1537037037037,0)" xlink:href="#ad"/><use transform="matrix(0.0685185185185185,0,0,0.0685185185185185,57.48703703703703,0)" xlink:href="#Y"/><use transform="matrix(0.0685185185185185,0,0,0.0685185185185185,71.19074074074072,0)" xlink:href="#ac"/><use transform="matrix(0.0685185185185185,0,0,0.0685185185185185,76.60370370370369,0)" xlink:href="#Y"/><use transform="matrix(0.0685185185185185,0,0,0.0685185185185185,90.30740740740738,0)" xlink:href="#ba"/><use transform="matrix(0.0685185185185185,0,0,0.0685185185185185,104.01111111111108,0)" xlink:href="#bb"/><use transform="matrix(0.0685185185185185,0,0,0.0685185185185185,120.45555555555552,0)" xlink:href="#bc"/><use transform="matrix(0.0685185185185185,0,0,0.0685185185185185,134.15925925925922,0)" xlink:href="#Z"/><use transform="matrix(0.0685185185185185,0,0,0.0685185185185185,142.31296296296293,0)" xlink:href="#ad"/><use transform="matrix(0.0685185185185185,0,0,0.0685185185185185,154.64629629629627,0)" xlink:href="#Y"/><use transform="matrix(0.0685185185185185,0,0,0.0685185185185185,168.34999999999997,0)" xlink:href="#ac"/><use transform="matrix(0.0685185185185185,0,0,0.0685185185185185,173.7629629629629,0)" xlink:href="#X"/></g><path fill="#fff" d="M205 0l-28-72H64L36 0H1l101-248h38L239 0h-34zm-38-99l-47-123c-12 45-31 82-46 123h93" id="bd"/><g id="P"><use transform="matrix(0.0685185185185185,0,0,0.0685185185185185,0,0)" xlink:href="#bd"/><use transform="matrix(0.0685185185185185,0,0,0.0685185185185185,16.444444444444443,0)" xlink:href="#ac"/><use transform="matrix(0.0685185185185185,0,0,0.0685185185185185,21.857407407407404,0)" xlink:href="#ac"/></g><path fill="#fff" d="M179-190L93 31C79 59 56 82 12 73V49c39 6 53-20 64-50L1-190h34L92-34l54-156h33" id="be"/><path fill="#fff" d="M240 0l2-218c-23 76-54 145-80 218h-23L58-218 59 0H30v-248h44l77 211c21-75 51-140 76-211h43V0h-30" id="bf"/><g id="Q"><use transform="matrix(0.0685185185185185,0,0,0.0685185185185185,0,0)" xlink:href="#aZ"/><use transform="matrix(0.0685185185185185,0,0,0.0685185185185185,17.746296296296293,0)" xlink:href="#Y"/><use transform="matrix(0.0685185185185185,0,0,0.0685185185185185,31.449999999999996,0)" xlink:href="#ac"/><use transform="matrix(0.0685185185185185,0,0,0.0685185185185185,36.86296296296297,0)" xlink:href="#af"/><use transform="matrix(0.0685185185185185,0,0,0.0685185185185185,42.275925925925925,0)" xlink:href="#az"/><use transform="matrix(0.0685185185185185,0,0,0.0685185185185185,54.609259259259254,0)" xlink:href="#Y"/><use transform="matrix(0.0685185185185185,0,0,0.0685185185185185,68.31296296296296,0)" xlink:href="#Z"/><use transform="matrix(0.0685185185185185,0,0,0.0685185185185185,76.46666666666665,0)" xlink:href="#be"/><use transform="matrix(0.0685185185185185,0,0,0.0685185185185185,88.79999999999998,0)" xlink:href="#bf"/><use transform="matrix(0.0685185185185185,0,0,0.0685185185185185,109.287037037037,0)" xlink:href="#bc"/><use transform="matrix(0.0685185185185185,0,0,0.0685185185185185,122.9907407407407,0)" xlink:href="#ag"/></g><g id="R"><use transform="matrix(0.05,0,0,0.05,0,0)" xlink:href="#aw"/><use transform="matrix(0.05,0,0,0.05,10,0)" xlink:href="#aq"/><use transform="matrix(0.05,0,0,0.05,20,0)" xlink:href="#ar"/><use transform="matrix(0.05,0,0,0.05,34.95,0)" xlink:href="#aj"/></g><path fill="#333" d="M212-179c-10-28-35-45-73-45-59 0-87 40-87 99 0 60 29 101 89 101 43 0 62-24 78-52l27 14C228-24 195 4 139 4 59 4 22-46 18-125c-6-104 99-153 187-111 19 9 31 26 39 46" id="bg"/><g id="S"><use transform="matrix(0.05,0,0,0.05,0,0)" xlink:href="#am"/><use transform="matrix(0.05,0,0,0.05,10,0)" xlink:href="#aj"/><use transform="matrix(0.05,0,0,0.05,20,0)" xlink:href="#at"/><use transform="matrix(0.05,0,0,0.05,23.95,0)" xlink:href="#as"/><use transform="matrix(0.05,0,0,0.05,27.899999999999995,0)" xlink:href="#aB"/><use transform="matrix(0.05,0,0,0.05,36.9,0)" xlink:href="#aj"/><use transform="matrix(0.05,0,0,0.05,46.9,0)" xlink:href="#ak"/><use transform="matrix(0.05,0,0,0.05,52.85,0)" xlink:href="#aP"/><use transform="matrix(0.05,0,0,0.05,61.85,0)" xlink:href="#bg"/><use transform="matrix(0.05,0,0,0.05,74.8,0)" xlink:href="#au"/><use transform="matrix(0.05,0,0,0.05,84.8,0)" xlink:href="#ah"/><use transform="matrix(0.05,0,0,0.05,94.8,0)" xlink:href="#aw"/><use transform="matrix(0.05,0,0,0.05,104.80000000000001,0)" xlink:href="#aH"/></g><path fill="#3a414a" d="M24-248c93 1 206-16 204 79-1 75-69 88-152 82V0H24v-248zm52 121c47 0 100 7 100-41 0-47-54-39-100-39v80" id="bh"/><path fill="#3a414a" d="M133-34C117-15 103 5 69 4 32 3 11-16 11-54c-1-60 55-63 116-61 1-26-3-47-28-47-18 1-26 9-28 27l-52-2c7-38 36-58 82-57s74 22 75 68l1 82c-1 14 12 18 25 15v27c-30 8-71 5-69-32zm-48 3c29 0 43-24 42-57-32 0-66-3-65 30 0 17 8 27 23 27" id="bi"/><path fill="#3a414a" d="M135-150c-39-12-60 13-60 57V0H25l-1-190h47c2 13-1 29 3 40 6-28 27-53 61-41v41" id="bj"/><path fill="#3a414a" d="M190-63c-7 42-38 67-86 67-59 0-84-38-90-98-12-110 154-137 174-36l-49 2c-2-19-15-32-35-32-30 0-35 28-38 64-6 74 65 87 74 30" id="bk"/><path fill="#3a414a" d="M185-48c-13 30-37 53-82 52C43 2 14-33 14-96s30-98 90-98c62 0 83 45 84 108H66c0 31 8 55 39 56 18 0 30-7 34-22zm-45-69c5-46-57-63-70-21-2 6-4 13-4 21h74" id="bl"/><path fill="#3a414a" d="M25 0v-261h50V0H25" id="bm"/><g id="T"><use transform="matrix(0.17962962962962933,0,0,0.17962962962962933,0,0)" xlink:href="#bh"/><use transform="matrix(0.17962962962962933,0,0,0.17962962962962933,43.11111111111104,0)" xlink:href="#bi"/><use transform="matrix(0.17962962962962933,0,0,0.17962962962962933,79.03703703703691,0)" xlink:href="#bj"/><use transform="matrix(0.17962962962962933,0,0,0.17962962962962933,104.18518518518502,0)" xlink:href="#bk"/><use transform="matrix(0.17962962962962933,0,0,0.17962962962962933,140.1111111111109,0)" xlink:href="#bl"/><use transform="matrix(0.17962962962962933,0,0,0.17962962962962933,176.03703703703675,0)" xlink:href="#bm"/></g><path fill="#3a414a" d="M67-125c0 54 23 88 75 88 28 0 53-7 68-21v-34h-60v-39h108v91C232-14 192 4 140 4 58 4 20-42 15-125 8-236 126-280 215-234c19 10 29 26 37 47l-47 15c-11-23-29-39-63-39-53 1-75 33-75 86" id="bn"/><path fill="#3a414a" d="M110-194c64 0 96 36 96 99 0 64-35 99-97 99-61 0-95-36-95-99 0-62 34-99 96-99zm-1 164c35 0 45-28 45-65 0-40-10-65-43-65-34 0-45 26-45 65 0 36 10 65 43 65" id="bo"/><g id="U"><use transform="matrix(0.17962962962962933,0,0,0.17962962962962933,0,0)" xlink:href="#bn"/><use transform="matrix(0.17962962962962933,0,0,0.17962962962962933,50.29629629629621,0)" xlink:href="#bo"/></g><path fill="#3a414a" d="M24 0v-248h195v40H76v63h132v40H76v65h150V0H24" id="bp"/><path fill="#3a414a" d="M88-194c31-1 46 15 58 34l-1-101h50l1 261h-48c-2-10 0-23-3-31C134-8 116 4 84 4 32 4 16-41 15-95c0-56 19-97 73-99zm17 164c33 0 40-30 41-66 1-37-9-64-41-64s-38 30-39 65c0 43 13 65 39 65" id="bq"/><g id="V"><use transform="matrix(0.17962962962962933,0,0,0.17962962962962933,0,0)" xlink:href="#bp"/><use transform="matrix(0.17962962962962933,0,0,0.17962962962962933,43.11111111111104,0)" xlink:href="#bj"/><use transform="matrix(0.17962962962962933,0,0,0.17962962962962933,68.25925925925915,0)" xlink:href="#bq"/></g></defs></g></svg>